# xmcd
#
# Track frame offsets: 
#        183
#        11323
#        24813
#        46435
#        59085
#        81470
#        95815
#        111388
#        129705
#        144408
#        160773
#        179760
#        194543
#        222610
#
# Disc length: 3208 seconds
#
# Revision: 0
# Processed by: cddbd v1.4PL0 Copyright (c) Steve Scherf et al.
# Submitted via: ExactAudioCopy v0.90a11
#
DISCID=d40c860e
DTITLE=Various Artist - Black and Blue
DYEAR=1900
DGENRE=
TTITLE0=Dinah Washington/Cry Me a River
TTITLE1=Sarah Vaughan/Just Friends
TTITLE2=Louis Armstrong/St. James Infirmary
TTITLE3=Lena Horne/Sometimes I Feel Like a Motherless Child
TTITLE4=Ella Fitzgerald and Louis Armstrong/Don't Be That Way
TTITLE5=Sarah Vaughan/Summertime
TTITLE6=Dinah Washington/Willow Weep For Me
TTITLE7=Nina Simone/I Got It Bad and That Ain't Good
TTITLE8=Sarah Vaughan/Black Coffee
TTITLE9=Louis Armstrong/Black and Blue
TTITLE10=Billie Holiday/Billie's Blues
TTITLE11=Sarah Vaughan/Lover Man
TTITLE12=Nina Simone/How Long Must I Wander
TTITLE13=Louis Armstrong/Back Ole Town Blues
EXTD=
EXTT0=
EXTT1=
EXTT2=
EXTT3=
EXTT4=
EXTT5=
EXTT6=
EXTT7=
EXTT8=
EXTT9=
EXTT10=
EXTT11=
EXTT12=
EXTT13=
PLAYORDER=
